<?xml version="1.0" encoding="UTF-8" standalone="no"?>
<!DOCTYPE svg PUBLIC "-//W3C//DTD SVG 1.1//EN" "http://www.w3.org/Graphics/SVG/1.1/DTD/svg11.dtd">
<svg width="100%" height="100%" viewBox="0 0 16 16" version="1.1" xmlns="http://www.w3.org/2000/svg" xmlns:xlink="http://www.w3.org/1999/xlink" xml:space="preserve" xmlns:serif="http://www.serif.com/" style="fill-rule:evenodd;clip-rule:evenodd;stroke-linejoin:round;stroke-miterlimit:2;">
    <g transform="matrix(0.106909,0,0,0.084,-7.58923,-7.07407)">
        <path d="M70.988,167.549L70.988,84.215L136.464,84.215L136.464,167.549L70.988,167.549ZM114.638,111.993L92.813,111.993L92.813,139.771L114.638,139.771L114.638,111.993Z"/>
    </g>
    <g transform="matrix(0.106909,0,0,0.084,-7.58923,1.92593)">
        <path d="M70.988,167.549L70.988,84.215L136.464,84.215L136.464,167.549L70.988,167.549ZM114.638,111.993L92.813,111.993L92.813,139.771L114.638,139.771L114.638,111.993Z"/>
    </g>
    <g transform="matrix(0.106909,0,0,0.084,1.41077,1.92593)">
        <path d="M70.988,167.549L70.988,84.215L136.464,84.215L136.464,167.549L70.988,167.549ZM114.638,111.993L92.813,111.993L92.813,139.771L114.638,139.771L114.638,111.993Z"/>
    </g>
</svg>
